name Run_300 02_newCOP3_v24.mot
datacolumns 19
datarows 106
range 2.81 2.8625
DataType=double
version=3
OpenSimVersion=4.3-2021-08-27-4bc7ad9
endheader
time	R_ground_force_vx	R_ground_force_vy	R_ground_force_vz	R_ground_force_px	R_ground_force_py	R_ground_force_pz	L_ground_force_vx	L_ground_force_vy	L_ground_force_vz	L_ground_force_px	L_ground_force_py	L_ground_force_pz	R_ground_torque_x	R_ground_torque_y	R_ground_torque_z	L_ground_torque_x	L_ground_torque_y	L_ground_torque_z
2.81	108.246666	318.431335	22.432396	0.640445	0	-0.317195	0	0	0	0	0	0	-0	0.599283	-0	0	0	0
2.8105	106.541359	311.49292	22.063391	0.639612	0	-0.317118	0	0	0	0	0	0	-0	0.655435	-0	0	0	0
2.811	104.829376	304.637878	21.696041	0.638799	0	-0.317035	0	0	0	0	0	0	-0	0.711199	-0	0	0	0
2.8115	103.111786	297.867004	21.330542	0.638007	0	-0.316944	0	0	0	0	0	0	-0	0.766523	-0	0	0	0
2.812	101.389656	291.181061	20.967075	0.6372370000000001	0	-0.316846	0	0	0	0	0	0	-0	0.821359	-0	0	0	0
2.8125	99.664047	284.580658	20.605797	0.63649	0	-0.31674	0	0	0	0	0	0	-0	0.875655	-0	0	0	0
2.813	97.93602799999999	278.066406	20.246853	0.635767	0	-0.316625	0	0	0	0	0	0	-0	0.929365	-0	0	0	0
2.8135	96.20663500000001	271.638733	19.890366	0.635069	0	-0.316502	0	0	0	0	0	0	-0	0.982439	-0	0	0	0
2.814	94.476921	265.298065	19.536436	0.634397	0	-0.316369	0	0	0	0	0	0	-0	1.034832	-0	0	0	0
2.8145	92.74791	259.044678	19.185154	0.633752	0	-0.316227	0	0	0	0	0	0	-0	1.086497	-0	0	0	0
2.815	91.02063800000001	252.878815	18.836584	0.633134	0	-0.316075	0	0	0	0	0	0	-0	1.13739	-0	0	0	0
2.8155	89.296097	246.800583	18.490782	0.632545	0	-0.315912	0	0	0	0	0	0	-0	1.187466	-0	0	0	0
2.816	87.57530199999999	240.810059	18.147778	0.631986	0	-0.315739	0	0	0	0	0	0	-0	1.236683	-0	0	0	0
2.8165	85.859222	234.907227	17.807594	0.631456	0	-0.315555	0	0	0	0	0	0	-0	1.284999	-0	0	0	0
2.817	84.148827	229.091995	17.470234	0.630958	0	-0.31536	0	0	0	0	0	0	-0	1.332374	-0	0	0	0
2.8175	82.445053	223.364227	17.135693	0.630491	0	-0.315153	0	0	0	0	0	0	-0	1.378766	-0	0	0	0
2.818	80.748825	217.723679	16.803946	0.6300559999999999	0	-0.314934	0	0	0	0	0	0	-0	1.424139	-0	0	0	0
2.8185	79.061058	212.170105	16.474964	0.629654	0	-0.314703	0	0	0	0	0	0	-0	1.468454	-0	0	0	0
2.819	77.382622	206.703171	16.148705	0.629285	0	-0.31446	0	0	0	0	0	0	-0	1.511674	-0	0	0	0
2.8195	75.71436300000001	201.322495	15.82512	0.628949	0	-0.314205	0	0	0	0	0	0	-0	1.553765	-0	0	0	0
2.82	74.057129	196.027679	15.504154	0.628647	0	-0.313937	0	0	0	0	0	0	-0	1.594693	-0	0	0	0
2.8205	72.411705	190.818283	15.185745	0.628379	0	-0.313656	0	0	0	0	0	0	-0	1.634424	-0	0	0	0
2.821	70.77887699999999	185.693802	14.869829	0.628145	0	-0.313362	0	0	0	0	0	0	-0	1.672928	-0	0	0	0
2.8215	69.159378	180.653748	14.556337	0.627946	0	-0.313055	0	0	0	0	0	0	-0	1.710173	-0	0	0	0
2.822	67.55392500000001	175.697586	14.245203	0.627781	0	-0.312734	0	0	0	0	0	0	-0	1.74613	-0	0	0	0
2.8225	65.96320299999999	170.824783	13.936358	0.62765	0	-0.312401	0	0	0	0	0	0	-0	1.780771	-0	0	0	0
2.823	64.387856	166.034805	13.629738	0.627553	0	-0.312054	0	0	0	0	0	0	-0	1.814069	-0	0	0	0
2.8235	62.828514	161.327072	13.325282	0.62749	0	-0.311694	0	0	0	0	0	0	-0	1.845999	-0	0	0	0
2.824	61.285759	156.701035	13.022932	0.62746	0	-0.31132	0	0	0	0	0	0	-0	1.876536	-0	0	0	0
2.8245	59.760151	152.156143	12.722639	0.627463	0	-0.310933	0	0	0	0	0	0	-0	1.905657	-0	0	0	0
2.825	58.252213	147.691849	12.42436	0.627499	0	-0.310533	0	0	0	0	0	0	-0	1.93334	-0	0	0	0
2.8255	56.76244	143.307632	12.128062	0.627567	0	-0.310119	0	0	0	0	0	0	-0	1.959565	-0	0	0	0
2.826	55.291294	139.002945	11.83372	0.627665	0	-0.309691	0	0	0	0	0	0	-0	1.984311	-0	0	0	0
2.8265	53.839214	134.777283	11.541321	0.627794	0	-0.30925	0	0	0	0	0	0	-0	2.007562	-0	0	0	0
2.827	52.406597	130.630157	11.250862	0.627952	0	-0.308795	0	0	0	0	0	0	-0	2.029299	-0	0	0	0
2.8275	50.993828	126.561096	10.962355	0.628138	0	-0.308327	0	0	0	0	0	0	-0	2.049509	-0	0	0	0
2.828	49.601246	122.569641	10.675823	0.628352	0	-0.307846	0	0	0	0	0	0	-0	2.068174	-0	0	0	0
2.8285	48.229183	118.65535	10.391303	0.628591	0	-0.307351	0	0	0	0	0	0	-0	2.085284	-0	0	0	0
2.829	46.877926	114.817802	10.108846	0.6288550000000001	0	-0.306842	0	0	0	0	0	0	-0	2.100825	-0	0	0	0
2.8295	45.547749	111.05661	9.828514999999999	0.629142	0	-0.30632	0	0	0	0	0	0	-0	2.114788	-0	0	0	0
2.83	44.238899	107.371384	9.55039	0.629451	0	-0.305784	0	0	0	0	0	0	-0	2.127162	-0	0	0	0
2.8305	42.951595	103.761765	9.274566	0.629779	0	-0.305235	0	0	0	0	0	0	-0	2.13794	-0	0	0	0
2.831	41.686039	100.227402	9.001144999999999	0.630125	0	-0.304671	0	0	0	0	0	0	-0	2.147115	-0	0	0	0
2.8315	40.442402	96.76796	8.730252	0.630487	0	-0.304094	0	0	0	0	0	0	-0	2.15468	-0	0	0	0
2.832	39.22084	93.383118	8.462019	0.630862	0	-0.303501	0	0	0	0	0	0	-0	2.160632	-0	0	0	0
2.8325	38.021484	90.072563	8.196591	0.6312489999999999	0	-0.302895	0	0	0	0	0	0	-0	2.164967	-0	0	0	0
2.833	36.844444	86.83599100000001	7.934127	0.631646	0	-0.302273	0	0	0	0	0	0	-0	2.167683	-0	0	0	0
2.8335	35.689804	83.673103	7.674797	0.632049	0	-0.301636	0	0	0	0	0	0	-0	2.168778	-0	0	0	0
2.834	34.557632	80.58358800000001	7.418779	0.632456	0	-0.300982	0	0	0	0	0	0	-0	2.168254	-0	0	0	0
2.8345	33.447971	77.56714599999999	7.166261	0.632865	0	-0.300312	0	0	0	0	0	0	-0	2.166112	-0	0	0	0
2.835	32.36084	74.623474	6.917441	0.6332719999999999	0	-0.299624	0	0	0	0	0	0	-0	2.162354	-0	0	0	0
2.8355	31.29624	71.752258	6.672521	0.633675	0	-0.298918	0	0	0	0	0	0	-0	2.156984	-0	0	0	0
2.836	30.254152	68.953163	6.43171	0.6340710000000001	0	-0.298193	0	0	0	0	0	0	-0	2.150007	-0	0	0	0
2.8365	29.234531	66.22586099999999	6.19522	0.634456	0	-0.297447	0	0	0	0	0	0	-0	2.141429	-0	0	0	0
2.837	28.237314	63.569988	5.963267	0.634827	0	-0.296679	0	0	0	0	0	0	-0	2.131258	-0	0	0	0
2.8375	27.262415	60.985168	5.736068	0.635181	0	-0.295888	0	0	0	0	0	0	-0	2.119501	-0	0	0	0
2.838	26.309727	58.471001	5.513839	0.635514	0	-0.295071	0	0	0	0	0	0	-0	2.106168	-0	0	0	0
2.8385	25.379128	56.027058	5.296794	0.6358239999999999	0	-0.294228	0	0	0	0	0	0	-0	2.091269	-0	0	0	0
2.839	24.47047	53.652889	5.085145	0.6361059999999999	0	-0.293355	0	0	0	0	0	0	-0	2.074817	-0	0	0	0
2.8395	23.583591	51.348007	4.879096	0.636357	0	-0.29245	0	0	0	0	0	0	-0	2.056823	-0	0	0	0
2.84	22.718313	49.111893	4.678847	0.636575	0	-0.29151	0	0	0	0	0	0	-0	2.037302	-0	0	0	0
2.8405	21.874439	46.943989	4.484591	0.636755	0	-0.290533	0	0	0	0	0	0	-0	2.016268	-0	0	0	0
2.841	21.051758	44.843708	4.296508	0.636894	0	-0.289514	0	0	0	0	0	0	-0	1.993737	-0	0	0	0
2.8415	20.250046	42.810417	4.11477	0.636989	0	-0.28845	0	0	0	0	0	0	-0	1.969725	-0	0	0	0
2.842	19.46907	40.843441	3.939534	0.637038	0	-0.287337	0	0	0	0	0	0	-0	1.94425	-0	0	0	0
2.8425	18.708586	38.942074	3.770946	0.637036	0	-0.286171	0	0	0	0	0	0	-0	1.917332	-0	0	0	0
2.843	17.968336	37.105556	3.609133	0.636982	0	-0.284945	0	0	0	0	0	0	-0	1.888989	-0	0	0	0
2.8435	17.248068	35.333088	3.454211	0.636873	0	-0.283654	0	0	0	0	0	0	-0	1.859242	-0	0	0	0
2.844	16.547512	33.623825	3.306274	0.636707	0	-0.282293	0	0	0	0	0	0	-0	1.828113	-0	0	0	0
2.8445	15.866405	31.976887	3.1654	0.636481	0	-0.280854	0	0	0	0	0	0	-0	1.795624	-0	0	0	0
2.845	15.204476	30.391336	3.031649	0.636195	0	-0.27933	0	0	0	0	0	0	-0	1.761798	-0	0	0	0
2.8455	14.56146	28.866203	2.905057	0.6358470000000001	0	-0.277714	0	0	0	0	0	0	-0	1.726659	-0	0	0	0
2.846	13.93709	27.400471	2.785645	0.635437	0	-0.275996	0	0	0	0	0	0	-0	1.690233	-0	0	0	0
2.8465	13.331101	25.993076	2.673408	0.634964	0	-0.274167	0	0	0	0	0	0	-0	1.652544	-0	0	0	0
2.847	12.743234	24.642925	2.568323	0.634427	0	-0.272218	0	0	0	0	0	0	-0	1.61362	-0	0	0	0
2.8475	12.173233	23.348877	2.470344	0.633829	0	-0.270137	0	0	0	0	0	0	-0	1.573487	-0	0	0	0
2.848	11.620849	22.109755	2.379403	0.63317	0	-0.267913	0	0	0	0	0	0	-0	1.532174	-0	0	0	0
2.8485	11.085835	20.924343	2.295413	0.632452	0	-0.265534	0	0	0	0	0	0	-0	1.489709	-0	0	0	0
2.849	10.567951	19.791397	2.218261	0.631678	0	-0.262987	0	0	0	0	0	0	-0	1.446122	-0	0	0	0
2.8495	10.066965	18.709635	2.147819	0.63085	0	-0.260258	0	0	0	0	0	0	-0	1.401442	-0	0	0	0
2.85	9.582646	17.677746	2.083933	0.629974	0	-0.257332	0	0	0	0	0	0	-0	1.3557	-0	0	0	0
2.8505	9.11477	16.694393	2.026433	0.629053	0	-0.254196	0	0	0	0	0	0	-0	1.308929	-0	0	0	0
2.851	8.663114	15.758211	1.975128	0.628093	0	-0.250832	0	0	0	0	0	0	-0	1.261158	-0	0	0	0
2.8515	8.227460000000001	14.867815	1.929809	0.627102	0	-0.247225	0	0	0	0	0	0	-0	1.212421	-0	0	0	0
2.852	7.80759	14.021796	1.89025	0.626086	0	-0.243359	0	0	0	0	0	0	-0	1.162751	-0	0	0	0
2.8525	7.403289	13.218731	1.856211	0.625053	0	-0.239216	0	0	0	0	0	0	-0	1.112182	-0	0	0	0
2.853	7.014337	12.457179	1.827434	0.624014	0	-0.234779	0	0	0	0	0	0	-0	1.060746	-0	0	0	0
2.8535	6.640515	11.73569	1.803649	0.622977	0	-0.230033	0	0	0	0	0	0	-0	1.008479	-0	0	0	0
2.854	6.281599	11.052804	1.784575	0.621956	0	-0.224959	0	0	0	0	0	0	-0	0.955414	-0	0	0	0
2.8545	5.93736	10.407055	1.76992	0.620962	0	-0.219543	0	0	0	0	0	0	-0	0.9015879999999999	-0	0	0	0
2.855	0	0	0	0	0	0	0	0	0	0	0	0	0	0	0	0	0	0
2.8555	0	0	0	0	0	0	0	0	0	0	0	0	0	0	0	0	0	0
2.856	0	0	0	0	0	0	0	0	0	0	0	0	0	0	0	0	0	0
2.8565	0	0	0	0	0	0	0	0	0	0	0	0	0	0	0	0	0	0
2.857	0	0	0	0	0	0	0	0	0	0	0	0	0	0	0	0	0	0
2.8575	0	0	0	0	0	0	0	0	0	0	0	0	0	0	0	0	0	0
2.858	0	0	0	0	0	0	0	0	0	0	0	0	0	0	0	0	0	0
2.8585	0	0	0	0	0	0	0	0	0	0	0	0	0	0	0	0	0	0
2.859	0	0	0	0	0	0	0	0	0	0	0	0	0	0	0	0	0	0
2.8595	0	0	0	0	0	0	0	0	0	0	0	0	0	0	0	0	0	0
2.86	0	0	0	0	0	0	0	0	0	0	0	0	0	0	0	0	0	0
2.8605	0	0	0	0	0	0	0	0	0	0	0	0	0	0	0	0	0	0
2.861	0	0	0	0	0	0	0	0	0	0	0	0	0	0	0	0	0	0
2.8615	0	0	0	0	0	0	0	0	0	0	0	0	0	0	0	0	0	0
2.862	0	0	0	0	0	0	0	0	0	0	0	0	0	0	0	0	0	0
2.8625	0	0	0	0	0	0	0	0	0	0	0	0	0	0	0	0	0	0
